<svg width="16" height="16" viewBox="0 0 16 16" fill="none" xmlns="http://www.w3.org/2000/svg">
<mask id="mask0_519_70573" style="mask-type:alpha" maskUnits="userSpaceOnUse" x="0" y="0" width="16" height="16">
<rect width="16" height="16" fill="#D9D9D9"/>
</mask>
<g mask="url(#mask0_519_70573)">
<path d="M7.15001 8.7001L6.15001 7.71676C6.02778 7.59454 5.8889 7.53343 5.73334 7.53343C5.57778 7.53343 5.4389 7.59454 5.31667 7.71676C5.19445 7.83899 5.13334 7.98065 5.13334 8.14177C5.13334 8.30288 5.19445 8.44454 5.31667 8.56676L6.73334 9.98343C6.85556 10.1057 6.99445 10.1668 7.15001 10.1668C7.30556 10.1668 7.44445 10.1057 7.56667 9.98343L10.6833 6.86676C10.8056 6.74454 10.8667 6.60288 10.8667 6.44176C10.8667 6.28065 10.8056 6.13899 10.6833 6.01676C10.5611 5.89454 10.4222 5.83343 10.2667 5.83343C10.1111 5.83343 9.97223 5.89454 9.85001 6.01676L7.15001 8.7001ZM8.00001 14.4001C7.12223 14.4001 6.29445 14.2334 5.51667 13.9001C4.7389 13.5668 4.05834 13.1084 3.47501 12.5251C2.89167 11.9418 2.43334 11.2612 2.10001 10.4834C1.76667 9.70565 1.60001 8.87788 1.60001 8.0001C1.60001 7.11121 1.76667 6.28065 2.10001 5.50843C2.43334 4.73621 2.89167 4.05843 3.47501 3.4751C4.05834 2.89176 4.7389 2.43343 5.51667 2.1001C6.29445 1.76676 7.12223 1.6001 8.00001 1.6001C8.8889 1.6001 9.71945 1.76676 10.4917 2.1001C11.2639 2.43343 11.9417 2.89176 12.525 3.4751C13.1083 4.05843 13.5667 4.73621 13.9 5.50843C14.2333 6.28065 14.4 7.11121 14.4 8.0001C14.4 8.87788 14.2333 9.70565 13.9 10.4834C13.5667 11.2612 13.1083 11.9418 12.525 12.5251C11.9417 13.1084 11.2639 13.5668 10.4917 13.9001C9.71945 14.2334 8.8889 14.4001 8.00001 14.4001Z" fill="#4CAE3D"/>
</g>
</svg>
