<svg xmlns="http://www.w3.org/2000/svg" viewBox="0 0 19.5 18.75" fill="none">
  <path clip-rule="evenodd" fill-rule="evenodd" fill="#2552ED" d="M13.3917 11.1779L13.3917 11.1777L13.3884 11.1764C13.3427 11.1566 13.2963 11.1382 13.2492 11.1213L8.4815 9.2361L8.4811 9.23678C8.35058 9.17904 8.20644 9.14634 8.05442 9.14634C7.47307 9.14634 7.00177 9.61526 7.00177 10.1937C7.00177 10.4328 7.08322 10.6524 7.21878 10.8287L7.21815 10.8294L7.22638 10.8388C7.25047 10.8694 7.27589 10.899 7.30322 10.9267L10.7214 14.834L10.7215 14.8339C11.1477 15.3122 11.7696 15.6141 12.4625 15.6141C13.7472 15.6141 14.7887 14.5779 14.7887 13.2997C14.7887 12.3502 14.2138 11.5348 13.3917 11.1779M11.8213 3.30004C12.9023 2.96157 14.0671 3.52057 14.423 4.54845C14.7789 5.57628 14.1911 6.68381 13.11 7.02232C12.0291 7.36065 10.8642 6.80165 10.5083 5.77387C10.1525 4.74594 10.7403 3.63837 11.8213 3.30004M19.3037 4.55494C19.1465 4.33349 18.918 4.19165 18.6698 4.12919L18.6696 4.12553L17.7376 3.88127C17.7241 3.83762 17.7153 3.79342 17.7006 3.74981C16.7328 0.88883 13.5653 -0.666909 10.6255 0.274993C9.10257 0.762827 7.94445 1.82742 7.31168 3.13598L5.62757 5.8118L1.63029 4.23472L1.62765 4.23765C1.37588 4.13542 1.08869 4.11296 0.809326 4.20242C0.191925 4.40034 -0.143909 5.04775 0.0593137 5.64877C0.0891145 5.73657 0.131345 5.81658 0.179153 5.89181L0.172205 5.8998L4.34266 11.42C4.34643 11.425 4.34829 11.4305 4.35205 11.4353C4.35577 11.4405 4.36067 11.4445 4.36463 11.4496L7.34833 15.6315C8.65209 17.9597 11.4727 19.3609 14.1956 18.4885C17.1352 17.5468 18.734 14.464 17.7661 11.603C17.4648 10.7126 16.9502 9.94884 16.2958 9.34724C17.1208 8.5594 17.6806 7.54286 17.8898 6.43972L18.7912 6.17934L18.7906 6.16949C18.8705 6.13933 18.9487 6.10284 19.0223 6.05338C19.5251 5.71523 19.6512 5.04443 19.3037 4.55494"/>
</svg>
